<mxfile host="app.diagrams.net" modified="2023-12-04T12:43:00.488Z" agent="Mozilla/5.0 (X11; Linux x86_64) AppleWebKit/537.36 (KHTML, like Gecko) Chrome/119.0.0.0 Safari/537.36" version="22.1.5" etag="nzrzPgpG7UewuQIKd4pk" type="github">
  <diagram name="第 1 页" id="d1_nBVX8EdWRcbDGDeRy">
    <mxGraphModel>
      <root>
        <mxCell id="0" />
        <mxCell id="1" parent="0" />
      </root>
    </mxGraphModel>
  </diagram>
</mxfile>
